<?xml version="1.0" encoding="utf-8"?>
<!-- Generator: Adobe Illustrator 24.1.2, SVG Export Plug-In . SVG Version: 6.00 Build 0)  -->
<svg version="1.1" id="Camada_1" xmlns="http://www.w3.org/2000/svg" xmlns:xlink="http://www.w3.org/1999/xlink" x="0px" y="0px"
	 viewBox="0 0 42.9 42.9" style="enable-background:new 0 0 42.9 42.9;" xml:space="preserve">
<style type="text/css">
	.st0{fill:#1D1C7F;}
	.st1{fill:#1E1C7F;}
</style>
<g id="Camada_2_1_">
	<g id="Camada_1-2">
		<path class="st0" d="M21.3,0C9.5,0.1-0.1,9.7,0,21.6c0,0,0,0,0,0C0.1,33.4,9.7,43,21.6,42.9c11.8-0.1,21.4-9.7,21.3-21.5
			C42.8,9.5,33.1,0,21.3,0z M21.3,40.4c-10.4-0.1-18.8-8.6-18.8-19c0.1-10.5,8.6-19,19.2-19c10.5,0.1,18.9,8.7,18.8,19.2
			S31.8,40.5,21.3,40.4z"/>
		<path class="st1" d="M29.4,11.7c-4.1,1.4-8.4,2.9-12.7,4.4c-0.7,0.3-0.8,1-1,1.6c-1.2,3.6-2.4,7.3-3.6,10.9
			c-0.2,0.7-0.6,1.4,0,2.1c0.7,0.7,1.4,0.4,2.1,0.1c3.8-1.3,7.6-2.5,11.4-3.8c0.7-0.2,1.3-0.7,1.5-1.4c1.3-4.1,2.7-8.1,4-12.1
			C31.5,12.3,30.9,11.7,29.4,11.7z M25,24.1c-0.1,0.5-0.5,0.9-1,1c-3,0.9-5.9,1.9-9.2,2.9c1.1-3.3,2.1-6.3,3.1-9.2
			c0.2-0.5,0.6-1,1.2-1.1c2.8-0.9,5.7-1.9,9-3C26.9,18.2,25.9,21.1,25,24.1z"/>
	</g>
</g>
</svg>
