<svg xmlns="http://www.w3.org/2000/svg" viewBox="0 0 42.86 42.91"><defs><style>.cls-1{fill:#1d1c7f;}.cls-2{fill:#f8f6fd;}.cls-3{fill:#1e1c7f;}.cls-4{fill:#f7f5fd;}</style></defs><g id="Camada_2" data-name="Camada 2"><g id="Camada_1-2" data-name="Camada 1"><path class="cls-1" d="M0,21.6A21.43,21.43,0,1,1,21.56,42.91,21.43,21.43,0,0,1,0,21.6Z"/><path class="cls-2" d="M21.58,2.43a19,19,0,1,1-19.16,19A19.13,19.13,0,0,1,21.58,2.43Z"/><path class="cls-3" d="M29.38,11.73c1.54,0,2.09.58,1.67,1.87-1.34,4-2.71,8-4,12.1a2.07,2.07,0,0,1-1.53,1.4c-3.81,1.26-7.6,2.55-11.4,3.81-.69.22-1.42.52-2.07-.14s-.22-1.38,0-2.06c1.19-3.65,2.38-7.3,3.6-10.94.21-.6.32-1.38,1-1.63C21,14.62,25.28,13.15,29.38,11.73Z"/><path class="cls-4" d="M14.81,28.07c1.11-3.33,2.1-6.25,3.06-9.18a1.61,1.61,0,0,1,1.2-1.08c2.85-.92,5.68-1.88,9-3-1.11,3.35-2.12,6.33-3.1,9.32a1.43,1.43,0,0,1-1,1C21,26.06,18.12,27,14.81,28.07Z"/></g></g></svg>